<mxfile host="app.diagrams.net" modified="2021-02-28T05:03:56.474Z" agent="5.0 (Windows NT 10.0; Win64; x64) AppleWebKit/537.36 (KHTML, like Gecko) Chrome/88.0.4324.182 Safari/537.36 Edg/88.0.705.81" etag="u__Y_H3KgExwh29WZf_w" version="14.4.3" type="github">
  <diagram id="Vwi1EXBxK2TPIhp4Lb0i" name="Page-1">
    <mxGraphModel dx="760" dy="668" grid="1" gridSize="10" guides="1" tooltips="1" connect="1" arrows="1" fold="1" page="1" pageScale="1" pageWidth="1169" pageHeight="827" math="0" shadow="0">
      <root>
        <mxCell id="0" />
        <mxCell id="1" parent="0" />
        <mxCell id="DUE_NzVIsJPlW699FP-4-35" style="edgeStyle=none;rounded=0;orthogonalLoop=1;jettySize=auto;html=1;exitX=0.75;exitY=1;exitDx=0;exitDy=0;entryX=0.009;entryY=0.147;entryDx=0;entryDy=0;entryPerimeter=0;" edge="1" parent="1" source="DUE_NzVIsJPlW699FP-4-1" target="DUE_NzVIsJPlW699FP-4-5">
          <mxGeometry relative="1" as="geometry">
            <Array as="points">
              <mxPoint x="250" y="281" />
            </Array>
          </mxGeometry>
        </mxCell>
        <mxCell id="DUE_NzVIsJPlW699FP-4-1" value="ROM" style="rounded=0;whiteSpace=wrap;html=1;" vertex="1" parent="1">
          <mxGeometry x="160" y="150" width="120" height="40" as="geometry" />
        </mxCell>
        <mxCell id="DUE_NzVIsJPlW699FP-4-26" style="edgeStyle=orthogonalEdgeStyle;rounded=0;orthogonalLoop=1;jettySize=auto;html=1;exitX=1;exitY=0.5;exitDx=0;exitDy=0;entryX=0.5;entryY=0;entryDx=0;entryDy=0;" edge="1" parent="1" source="DUE_NzVIsJPlW699FP-4-2" target="DUE_NzVIsJPlW699FP-4-4">
          <mxGeometry relative="1" as="geometry" />
        </mxCell>
        <mxCell id="DUE_NzVIsJPlW699FP-4-27" style="edgeStyle=orthogonalEdgeStyle;rounded=0;orthogonalLoop=1;jettySize=auto;html=1;exitX=1;exitY=0.5;exitDx=0;exitDy=0;entryX=0.007;entryY=0.358;entryDx=0;entryDy=0;entryPerimeter=0;" edge="1" parent="1" source="DUE_NzVIsJPlW699FP-4-2" target="DUE_NzVIsJPlW699FP-4-5">
          <mxGeometry relative="1" as="geometry" />
        </mxCell>
        <mxCell id="DUE_NzVIsJPlW699FP-4-2" value="PC" style="rounded=0;whiteSpace=wrap;html=1;" vertex="1" parent="1">
          <mxGeometry x="240" y="320" width="40" height="40" as="geometry" />
        </mxCell>
        <mxCell id="DUE_NzVIsJPlW699FP-4-23" style="edgeStyle=orthogonalEdgeStyle;rounded=0;orthogonalLoop=1;jettySize=auto;html=1;exitX=0.5;exitY=0;exitDx=0;exitDy=0;entryX=0.165;entryY=1;entryDx=0;entryDy=0;entryPerimeter=0;" edge="1" parent="1" source="DUE_NzVIsJPlW699FP-4-3" target="DUE_NzVIsJPlW699FP-4-1">
          <mxGeometry relative="1" as="geometry">
            <mxPoint x="180" y="200" as="targetPoint" />
          </mxGeometry>
        </mxCell>
        <mxCell id="DUE_NzVIsJPlW699FP-4-25" style="edgeStyle=orthogonalEdgeStyle;rounded=0;orthogonalLoop=1;jettySize=auto;html=1;exitX=0.5;exitY=0;exitDx=0;exitDy=0;entryX=0;entryY=0.5;entryDx=0;entryDy=0;" edge="1" parent="1" source="DUE_NzVIsJPlW699FP-4-3" target="DUE_NzVIsJPlW699FP-4-2">
          <mxGeometry relative="1" as="geometry" />
        </mxCell>
        <mxCell id="DUE_NzVIsJPlW699FP-4-3" value="" style="shape=trapezoid;perimeter=trapezoidPerimeter;whiteSpace=wrap;html=1;fixedSize=1;direction=north;" vertex="1" parent="1">
          <mxGeometry x="200" y="480" width="40" height="80" as="geometry" />
        </mxCell>
        <mxCell id="DUE_NzVIsJPlW699FP-4-28" style="edgeStyle=orthogonalEdgeStyle;rounded=0;orthogonalLoop=1;jettySize=auto;html=1;exitX=0;exitY=0.5;exitDx=0;exitDy=0;entryX=0.75;entryY=1;entryDx=0;entryDy=0;" edge="1" parent="1" source="DUE_NzVIsJPlW699FP-4-4" target="DUE_NzVIsJPlW699FP-4-3">
          <mxGeometry relative="1" as="geometry" />
        </mxCell>
        <mxCell id="DUE_NzVIsJPlW699FP-4-4" value="+4" style="whiteSpace=wrap;html=1;aspect=fixed;" vertex="1" parent="1">
          <mxGeometry x="280" y="480" width="40" height="40" as="geometry" />
        </mxCell>
        <mxCell id="DUE_NzVIsJPlW699FP-4-36" style="edgeStyle=none;rounded=0;orthogonalLoop=1;jettySize=auto;html=1;exitX=1;exitY=0.5;exitDx=0;exitDy=0;entryX=0;entryY=0.5;entryDx=0;entryDy=0;" edge="1" parent="1" source="DUE_NzVIsJPlW699FP-4-5" target="DUE_NzVIsJPlW699FP-4-13">
          <mxGeometry relative="1" as="geometry">
            <Array as="points">
              <mxPoint x="420" y="380" />
            </Array>
          </mxGeometry>
        </mxCell>
        <mxCell id="DUE_NzVIsJPlW699FP-4-37" style="edgeStyle=none;rounded=0;orthogonalLoop=1;jettySize=auto;html=1;exitX=1;exitY=0.5;exitDx=0;exitDy=0;entryX=0;entryY=0.5;entryDx=0;entryDy=0;" edge="1" parent="1" source="DUE_NzVIsJPlW699FP-4-5" target="DUE_NzVIsJPlW699FP-4-11">
          <mxGeometry relative="1" as="geometry">
            <Array as="points">
              <mxPoint x="420" y="380" />
              <mxPoint x="420" y="330" />
            </Array>
          </mxGeometry>
        </mxCell>
        <mxCell id="DUE_NzVIsJPlW699FP-4-38" style="edgeStyle=none;rounded=0;orthogonalLoop=1;jettySize=auto;html=1;exitX=1;exitY=0.5;exitDx=0;exitDy=0;entryX=0;entryY=0.5;entryDx=0;entryDy=0;" edge="1" parent="1" source="DUE_NzVIsJPlW699FP-4-5" target="DUE_NzVIsJPlW699FP-4-10">
          <mxGeometry relative="1" as="geometry">
            <Array as="points">
              <mxPoint x="420" y="380" />
              <mxPoint x="420" y="280" />
            </Array>
          </mxGeometry>
        </mxCell>
        <mxCell id="DUE_NzVIsJPlW699FP-4-39" style="edgeStyle=none;rounded=0;orthogonalLoop=1;jettySize=auto;html=1;exitX=1;exitY=0.5;exitDx=0;exitDy=0;entryX=0;entryY=0.5;entryDx=0;entryDy=0;" edge="1" parent="1" source="DUE_NzVIsJPlW699FP-4-5" target="DUE_NzVIsJPlW699FP-4-15">
          <mxGeometry relative="1" as="geometry">
            <Array as="points">
              <mxPoint x="420" y="380" />
              <mxPoint x="420" y="480" />
            </Array>
          </mxGeometry>
        </mxCell>
        <mxCell id="DUE_NzVIsJPlW699FP-4-40" style="edgeStyle=none;rounded=0;orthogonalLoop=1;jettySize=auto;html=1;exitX=1;exitY=0.5;exitDx=0;exitDy=0;entryX=0;entryY=0.5;entryDx=0;entryDy=0;" edge="1" parent="1" source="DUE_NzVIsJPlW699FP-4-5" target="DUE_NzVIsJPlW699FP-4-14">
          <mxGeometry relative="1" as="geometry">
            <Array as="points">
              <mxPoint x="420" y="380" />
              <mxPoint x="420" y="430" />
            </Array>
          </mxGeometry>
        </mxCell>
        <mxCell id="DUE_NzVIsJPlW699FP-4-5" value="IF&lt;br&gt;ID" style="rounded=0;whiteSpace=wrap;html=1;" vertex="1" parent="1">
          <mxGeometry x="360" y="240" width="40" height="280" as="geometry" />
        </mxCell>
        <mxCell id="DUE_NzVIsJPlW699FP-4-45" style="edgeStyle=none;rounded=0;orthogonalLoop=1;jettySize=auto;html=1;exitX=1;exitY=0.75;exitDx=0;exitDy=0;entryX=0;entryY=0.75;entryDx=0;entryDy=0;entryPerimeter=0;endArrow=none;" edge="1" parent="1" source="DUE_NzVIsJPlW699FP-4-6" target="DUE_NzVIsJPlW699FP-4-16">
          <mxGeometry relative="1" as="geometry">
            <Array as="points">
              <mxPoint x="680" y="450" />
              <mxPoint x="680" y="550" />
            </Array>
          </mxGeometry>
        </mxCell>
        <mxCell id="DUE_NzVIsJPlW699FP-4-6" value="ID&lt;br&gt;EX" style="rounded=0;whiteSpace=wrap;html=1;" vertex="1" parent="1">
          <mxGeometry x="600" y="240" width="40" height="280" as="geometry" />
        </mxCell>
        <mxCell id="DUE_NzVIsJPlW699FP-4-52" style="edgeStyle=none;rounded=0;orthogonalLoop=1;jettySize=auto;html=1;exitX=1;exitY=0.75;exitDx=0;exitDy=0;entryX=0;entryY=0.25;entryDx=0;entryDy=0;entryPerimeter=0;endArrow=none;" edge="1" parent="1" source="DUE_NzVIsJPlW699FP-4-7" target="DUE_NzVIsJPlW699FP-4-16">
          <mxGeometry relative="1" as="geometry">
            <Array as="points">
              <mxPoint x="880" y="450" />
              <mxPoint x="880" y="570" />
            </Array>
          </mxGeometry>
        </mxCell>
        <mxCell id="DUE_NzVIsJPlW699FP-4-65" style="edgeStyle=none;rounded=0;orthogonalLoop=1;jettySize=auto;html=1;exitX=1;exitY=0.5;exitDx=0;exitDy=0;entryX=0;entryY=0.5;entryDx=0;entryDy=0;endArrow=classic;endFill=1;" edge="1" parent="1" source="DUE_NzVIsJPlW699FP-4-7" target="DUE_NzVIsJPlW699FP-4-20">
          <mxGeometry relative="1" as="geometry" />
        </mxCell>
        <mxCell id="DUE_NzVIsJPlW699FP-4-77" style="edgeStyle=none;rounded=0;sketch=0;jumpStyle=arc;orthogonalLoop=1;jettySize=auto;html=1;entryX=0.5;entryY=1;entryDx=0;entryDy=0;shadow=0;endArrow=classic;endFill=1;exitX=0.714;exitY=-0.014;exitDx=0;exitDy=0;exitPerimeter=0;" edge="1" parent="1" source="DUE_NzVIsJPlW699FP-4-9" target="DUE_NzVIsJPlW699FP-4-7">
          <mxGeometry relative="1" as="geometry">
            <mxPoint x="800" y="580" as="sourcePoint" />
          </mxGeometry>
        </mxCell>
        <mxCell id="DUE_NzVIsJPlW699FP-4-7" value="EX&lt;br&gt;MEM" style="rounded=0;whiteSpace=wrap;html=1;" vertex="1" parent="1">
          <mxGeometry x="780" y="240" width="40" height="280" as="geometry" />
        </mxCell>
        <mxCell id="DUE_NzVIsJPlW699FP-4-71" style="edgeStyle=none;rounded=0;sketch=0;jumpStyle=arc;orthogonalLoop=1;jettySize=auto;html=1;exitX=1;exitY=0.5;exitDx=0;exitDy=0;entryX=0;entryY=0.75;entryDx=0;entryDy=0;shadow=0;endArrow=classic;endFill=1;" edge="1" parent="1" source="DUE_NzVIsJPlW699FP-4-8" target="DUE_NzVIsJPlW699FP-4-22">
          <mxGeometry relative="1" as="geometry" />
        </mxCell>
        <mxCell id="DUE_NzVIsJPlW699FP-4-78" style="edgeStyle=none;rounded=0;sketch=0;jumpStyle=arc;orthogonalLoop=1;jettySize=auto;html=1;entryX=0.5;entryY=1;entryDx=0;entryDy=0;shadow=0;endArrow=classic;endFill=1;exitX=0.953;exitY=0.005;exitDx=0;exitDy=0;exitPerimeter=0;" edge="1" parent="1" source="DUE_NzVIsJPlW699FP-4-9" target="DUE_NzVIsJPlW699FP-4-8">
          <mxGeometry relative="1" as="geometry">
            <mxPoint x="1000" y="570" as="sourcePoint" />
          </mxGeometry>
        </mxCell>
        <mxCell id="DUE_NzVIsJPlW699FP-4-8" value="MEM&lt;br&gt;WB" style="rounded=0;whiteSpace=wrap;html=1;" vertex="1" parent="1">
          <mxGeometry x="980" y="240" width="40" height="280" as="geometry" />
        </mxCell>
        <mxCell id="DUE_NzVIsJPlW699FP-4-9" value="PipelineController" style="rounded=0;whiteSpace=wrap;html=1;" vertex="1" parent="1">
          <mxGeometry x="200" y="600" width="840" height="40" as="geometry" />
        </mxCell>
        <mxCell id="DUE_NzVIsJPlW699FP-4-41" style="edgeStyle=none;rounded=0;orthogonalLoop=1;jettySize=auto;html=1;exitX=1;exitY=0.5;exitDx=0;exitDy=0;" edge="1" parent="1" source="DUE_NzVIsJPlW699FP-4-10">
          <mxGeometry relative="1" as="geometry">
            <mxPoint x="600" y="280" as="targetPoint" />
          </mxGeometry>
        </mxCell>
        <mxCell id="DUE_NzVIsJPlW699FP-4-10" value="OperandGen" style="rounded=0;whiteSpace=wrap;html=1;" vertex="1" parent="1">
          <mxGeometry x="440" y="260" width="80" height="40" as="geometry" />
        </mxCell>
        <mxCell id="DUE_NzVIsJPlW699FP-4-42" style="edgeStyle=none;rounded=0;orthogonalLoop=1;jettySize=auto;html=1;exitX=1;exitY=0.5;exitDx=0;exitDy=0;entryX=-0.008;entryY=0.32;entryDx=0;entryDy=0;entryPerimeter=0;" edge="1" parent="1" source="DUE_NzVIsJPlW699FP-4-11" target="DUE_NzVIsJPlW699FP-4-6">
          <mxGeometry relative="1" as="geometry" />
        </mxCell>
        <mxCell id="DUE_NzVIsJPlW699FP-4-11" value="&lt;span&gt;RegGen&lt;/span&gt;" style="rounded=0;whiteSpace=wrap;html=1;" vertex="1" parent="1">
          <mxGeometry x="440" y="310" width="80" height="40" as="geometry" />
        </mxCell>
        <mxCell id="DUE_NzVIsJPlW699FP-4-43" style="edgeStyle=none;rounded=0;orthogonalLoop=1;jettySize=auto;html=1;exitX=1;exitY=0.5;exitDx=0;exitDy=0;entryX=0;entryY=0.5;entryDx=0;entryDy=0;" edge="1" parent="1" source="DUE_NzVIsJPlW699FP-4-13" target="DUE_NzVIsJPlW699FP-4-6">
          <mxGeometry relative="1" as="geometry" />
        </mxCell>
        <mxCell id="DUE_NzVIsJPlW699FP-4-13" value="FunctGen" style="rounded=0;whiteSpace=wrap;html=1;" vertex="1" parent="1">
          <mxGeometry x="440" y="360" width="80" height="40" as="geometry" />
        </mxCell>
        <mxCell id="DUE_NzVIsJPlW699FP-4-44" style="edgeStyle=none;rounded=0;orthogonalLoop=1;jettySize=auto;html=1;exitX=1;exitY=0.5;exitDx=0;exitDy=0;" edge="1" parent="1" source="DUE_NzVIsJPlW699FP-4-14">
          <mxGeometry relative="1" as="geometry">
            <mxPoint x="600" y="430" as="targetPoint" />
          </mxGeometry>
        </mxCell>
        <mxCell id="DUE_NzVIsJPlW699FP-4-14" value="MemGen" style="rounded=0;whiteSpace=wrap;html=1;" vertex="1" parent="1">
          <mxGeometry x="440" y="410" width="80" height="40" as="geometry" />
        </mxCell>
        <mxCell id="DUE_NzVIsJPlW699FP-4-30" style="edgeStyle=orthogonalEdgeStyle;rounded=0;orthogonalLoop=1;jettySize=auto;html=1;exitX=0.25;exitY=1;exitDx=0;exitDy=0;entryX=0.25;entryY=1;entryDx=0;entryDy=0;" edge="1" parent="1" source="DUE_NzVIsJPlW699FP-4-15" target="DUE_NzVIsJPlW699FP-4-3">
          <mxGeometry relative="1" as="geometry">
            <mxPoint x="241" y="540" as="targetPoint" />
            <Array as="points">
              <mxPoint x="460" y="540" />
            </Array>
          </mxGeometry>
        </mxCell>
        <mxCell id="DUE_NzVIsJPlW699FP-4-31" style="edgeStyle=orthogonalEdgeStyle;rounded=0;orthogonalLoop=1;jettySize=auto;html=1;exitX=0.75;exitY=1;exitDx=0;exitDy=0;" edge="1" parent="1" source="DUE_NzVIsJPlW699FP-4-15">
          <mxGeometry relative="1" as="geometry">
            <mxPoint x="240" y="552" as="targetPoint" />
            <Array as="points">
              <mxPoint x="500" y="552" />
            </Array>
          </mxGeometry>
        </mxCell>
        <mxCell id="DUE_NzVIsJPlW699FP-4-15" value="BranchGen" style="rounded=0;whiteSpace=wrap;html=1;" vertex="1" parent="1">
          <mxGeometry x="440" y="460" width="80" height="40" as="geometry" />
        </mxCell>
        <mxCell id="DUE_NzVIsJPlW699FP-4-53" style="edgeStyle=none;rounded=0;orthogonalLoop=1;jettySize=auto;html=1;entryX=0.381;entryY=0;entryDx=0;entryDy=0;entryPerimeter=0;exitX=1;exitY=0.5;exitDx=0;exitDy=0;exitPerimeter=0;anchorPointDirection=1;" edge="1" parent="1" source="DUE_NzVIsJPlW699FP-4-16" target="DUE_NzVIsJPlW699FP-4-9">
          <mxGeometry relative="1" as="geometry">
            <mxPoint x="518" y="560" as="sourcePoint" />
            <Array as="points">
              <mxPoint x="520" y="560" />
            </Array>
          </mxGeometry>
        </mxCell>
        <mxCell id="DUE_NzVIsJPlW699FP-4-16" value="" style="verticalLabelPosition=bottom;shadow=0;dashed=0;align=center;html=1;verticalAlign=top;shape=mxgraph.electrical.logic_gates.logic_gate;operation=or;direction=west;" vertex="1" parent="1">
          <mxGeometry x="520" y="540" width="80" height="40" as="geometry" />
        </mxCell>
        <mxCell id="DUE_NzVIsJPlW699FP-4-17" value="ALU" style="shape=trapezoid;perimeter=trapezoidPerimeter;whiteSpace=wrap;html=1;fixedSize=1;direction=south;" vertex="1" parent="1">
          <mxGeometry x="680" y="280" width="40" height="120" as="geometry" />
        </mxCell>
        <mxCell id="DUE_NzVIsJPlW699FP-4-19" value="RAM" style="rounded=0;whiteSpace=wrap;html=1;" vertex="1" parent="1">
          <mxGeometry x="860" y="140" width="120" height="40" as="geometry" />
        </mxCell>
        <mxCell id="DUE_NzVIsJPlW699FP-4-20" value="&lt;span&gt;AddrGen&lt;/span&gt;" style="rounded=0;whiteSpace=wrap;html=1;" vertex="1" parent="1">
          <mxGeometry x="860" y="360" width="80" height="40" as="geometry" />
        </mxCell>
        <mxCell id="DUE_NzVIsJPlW699FP-4-21" value="ReadProxy" style="rounded=0;whiteSpace=wrap;html=1;" vertex="1" parent="1">
          <mxGeometry x="1060" y="240" width="120" height="40" as="geometry" />
        </mxCell>
        <mxCell id="DUE_NzVIsJPlW699FP-4-72" style="edgeStyle=none;rounded=0;sketch=0;jumpStyle=arc;orthogonalLoop=1;jettySize=auto;html=1;exitX=0.5;exitY=0;exitDx=0;exitDy=0;entryX=0.5;entryY=1;entryDx=0;entryDy=0;shadow=0;endArrow=classic;endFill=1;" edge="1" parent="1" source="DUE_NzVIsJPlW699FP-4-22" target="DUE_NzVIsJPlW699FP-4-21">
          <mxGeometry relative="1" as="geometry" />
        </mxCell>
        <mxCell id="DUE_NzVIsJPlW699FP-4-22" value="RegFile" style="rounded=0;whiteSpace=wrap;html=1;" vertex="1" parent="1">
          <mxGeometry x="1060" y="320" width="120" height="80" as="geometry" />
        </mxCell>
        <mxCell id="DUE_NzVIsJPlW699FP-4-33" value="" style="endArrow=classic;html=1;entryX=0;entryY=0.5;entryDx=0;entryDy=0;" edge="1" parent="1" target="DUE_NzVIsJPlW699FP-4-3">
          <mxGeometry width="50" height="50" relative="1" as="geometry">
            <mxPoint x="220" y="600" as="sourcePoint" />
            <mxPoint x="270" y="550" as="targetPoint" />
          </mxGeometry>
        </mxCell>
        <mxCell id="DUE_NzVIsJPlW699FP-4-61" value="" style="endArrow=classic;html=1;entryX=0.339;entryY=1;entryDx=0;entryDy=0;entryPerimeter=0;" edge="1" parent="1" target="DUE_NzVIsJPlW699FP-4-17">
          <mxGeometry width="50" height="50" relative="1" as="geometry">
            <mxPoint x="640" y="320" as="sourcePoint" />
            <mxPoint x="690" y="270" as="targetPoint" />
          </mxGeometry>
        </mxCell>
        <mxCell id="DUE_NzVIsJPlW699FP-4-62" value="" style="endArrow=classic;html=1;entryX=0.339;entryY=1;entryDx=0;entryDy=0;entryPerimeter=0;" edge="1" parent="1">
          <mxGeometry width="50" height="50" relative="1" as="geometry">
            <mxPoint x="640" y="359.32" as="sourcePoint" />
            <mxPoint x="680" y="360" as="targetPoint" />
          </mxGeometry>
        </mxCell>
        <mxCell id="DUE_NzVIsJPlW699FP-4-64" value="" style="endArrow=classic;html=1;exitX=0.5;exitY=0;exitDx=0;exitDy=0;" edge="1" parent="1" source="DUE_NzVIsJPlW699FP-4-17">
          <mxGeometry width="50" height="50" relative="1" as="geometry">
            <mxPoint x="740" y="340" as="sourcePoint" />
            <mxPoint x="780" y="339.71000000000004" as="targetPoint" />
          </mxGeometry>
        </mxCell>
        <mxCell id="DUE_NzVIsJPlW699FP-4-66" style="edgeStyle=none;rounded=0;orthogonalLoop=1;jettySize=auto;html=1;exitX=0.5;exitY=0;exitDx=0;exitDy=0;endArrow=classic;endFill=1;jumpStyle=none;sketch=0;shadow=0;entryX=0.333;entryY=1;entryDx=0;entryDy=0;entryPerimeter=0;" edge="1" parent="1" source="DUE_NzVIsJPlW699FP-4-20" target="DUE_NzVIsJPlW699FP-4-19">
          <mxGeometry relative="1" as="geometry">
            <mxPoint x="900" y="200" as="targetPoint" />
          </mxGeometry>
        </mxCell>
        <mxCell id="DUE_NzVIsJPlW699FP-4-69" value="" style="endArrow=classic;html=1;shadow=0;exitX=0.75;exitY=1;exitDx=0;exitDy=0;entryX=0;entryY=0.143;entryDx=0;entryDy=0;entryPerimeter=0;rounded=0;" edge="1" parent="1" source="DUE_NzVIsJPlW699FP-4-19" target="DUE_NzVIsJPlW699FP-4-8">
          <mxGeometry width="50" height="50" relative="1" as="geometry">
            <mxPoint x="927" y="300" as="sourcePoint" />
            <mxPoint x="1020" y="290" as="targetPoint" />
            <Array as="points">
              <mxPoint x="950" y="280" />
            </Array>
          </mxGeometry>
        </mxCell>
        <mxCell id="DUE_NzVIsJPlW699FP-4-67" style="edgeStyle=none;rounded=0;orthogonalLoop=1;jettySize=auto;html=1;exitX=0.75;exitY=0;exitDx=0;exitDy=0;entryX=0.5;entryY=0;entryDx=0;entryDy=0;endArrow=classic;endFill=1;jumpStyle=arc;" edge="1" parent="1" source="DUE_NzVIsJPlW699FP-4-21" target="DUE_NzVIsJPlW699FP-4-10">
          <mxGeometry relative="1" as="geometry">
            <Array as="points">
              <mxPoint x="1150" y="200" />
              <mxPoint x="480" y="200" />
            </Array>
          </mxGeometry>
        </mxCell>
        <mxCell id="DUE_NzVIsJPlW699FP-4-73" style="edgeStyle=none;rounded=0;sketch=0;jumpStyle=arc;orthogonalLoop=1;jettySize=auto;html=1;entryX=0.5;entryY=0;entryDx=0;entryDy=0;shadow=0;endArrow=classic;endFill=1;" edge="1" parent="1" target="DUE_NzVIsJPlW699FP-4-21">
          <mxGeometry relative="1" as="geometry">
            <mxPoint x="740" y="340" as="sourcePoint" />
            <Array as="points">
              <mxPoint x="740" y="210" />
              <mxPoint x="1120" y="210" />
            </Array>
          </mxGeometry>
        </mxCell>
        <mxCell id="DUE_NzVIsJPlW699FP-4-74" style="edgeStyle=none;rounded=0;sketch=0;jumpStyle=arc;orthogonalLoop=1;jettySize=auto;html=1;exitX=1;exitY=0.25;exitDx=0;exitDy=0;entryX=0.25;entryY=0;entryDx=0;entryDy=0;shadow=0;endArrow=classic;endFill=1;" edge="1" parent="1" source="DUE_NzVIsJPlW699FP-4-7" target="DUE_NzVIsJPlW699FP-4-21">
          <mxGeometry relative="1" as="geometry">
            <Array as="points">
              <mxPoint x="860" y="310" />
              <mxPoint x="860" y="220" />
              <mxPoint x="1090" y="220" />
            </Array>
          </mxGeometry>
        </mxCell>
        <mxCell id="DUE_NzVIsJPlW699FP-4-75" style="edgeStyle=none;rounded=0;sketch=0;jumpStyle=arc;orthogonalLoop=1;jettySize=auto;html=1;entryX=0.5;entryY=1;entryDx=0;entryDy=0;shadow=0;endArrow=classic;endFill=1;exitX=0.214;exitY=0;exitDx=0;exitDy=0;exitPerimeter=0;" edge="1" parent="1" source="DUE_NzVIsJPlW699FP-4-9" target="DUE_NzVIsJPlW699FP-4-5">
          <mxGeometry relative="1" as="geometry">
            <mxPoint x="380" y="580" as="sourcePoint" />
          </mxGeometry>
        </mxCell>
        <mxCell id="DUE_NzVIsJPlW699FP-4-76" style="edgeStyle=none;rounded=0;sketch=0;jumpStyle=arc;orthogonalLoop=1;jettySize=auto;html=1;shadow=0;endArrow=classic;endFill=1;exitX=0.5;exitY=0;exitDx=0;exitDy=0;entryX=0.5;entryY=1;entryDx=0;entryDy=0;" edge="1" parent="1" source="DUE_NzVIsJPlW699FP-4-9" target="DUE_NzVIsJPlW699FP-4-6">
          <mxGeometry relative="1" as="geometry" />
        </mxCell>
      </root>
    </mxGraphModel>
  </diagram>
</mxfile>
